<svg width="2000px" height="1200px"
 viewBox="0.00 0.00 902.91 542.02" xmlns="http://www.w3.org/2000/svg" xmlns:xlink="http://www.w3.org/1999/xlink">
<g id="graph0" class="graph" transform="scale(1.0 1.0) rotate(0) translate(4 538.02)">
<title>ContextMapGraph</title>
<polygon fill="white" stroke="transparent" points="-4,4 -4,-538.02 898.91,-538.02 898.91,4 -4,4"/>
<!-- CatalogProductosContext -->
<g id="node1" class="node">
<title>CatalogProductosContext</title>
<polygon fill="none" stroke="black" stroke-width="2" points="337.23,-505.54 332.06,-508.09 326.49,-510.57 320.55,-512.97 314.25,-515.27 307.62,-517.47 300.69,-519.57 293.46,-521.54 285.98,-523.39 278.25,-525.1 270.32,-526.67 262.19,-528.1 253.9,-529.37 245.47,-530.49 236.92,-531.45 228.27,-532.24 219.56,-532.88 210.8,-533.34 202.01,-533.65 193.21,-533.79 184.44,-533.77 175.7,-533.58 167.01,-533.24 158.41,-532.75 149.89,-532.1 141.5,-531.32 133.23,-530.39 125.11,-529.33 117.15,-528.14 109.38,-526.84 101.8,-525.42 94.43,-523.9 87.28,-522.28 80.38,-520.57 73.72,-518.78 67.33,-516.92 61.22,-515 55.4,-513.01 49.88,-510.98 44.67,-508.91 39.79,-506.81 35.24,-504.67 31.04,-502.52 27.2,-500.36 23.72,-498.19 20.62,-496.02 17.91,-493.86 15.59,-491.7 13.67,-489.57 12.16,-487.45 11.06,-485.35 10.39,-483.28 10.15,-481.25 10.35,-479.24 10.98,-477.27 12.05,-475.34 13.57,-473.45 15.54,-471.6 17.95,-469.79 20.81,-468.03 24.11,-466.31 27.86,-464.64 32.04,-463.02 36.65,-461.44 41.68,-459.92 47.13,-458.44 52.99,-457.02 59.23,-455.65 65.86,-454.33 72.86,-453.07 80.2,-451.86 87.88,-450.71 95.86,-449.63 104.14,-448.6 112.69,-447.64 121.49,-446.75 130.51,-445.93 139.72,-445.19 149.1,-444.52 158.63,-443.93 168.26,-443.42 177.98,-443 187.74,-442.67 197.53,-442.44 207.3,-442.31 217.03,-442.27 226.69,-442.35 236.23,-442.53 245.64,-442.82 254.87,-443.22 263.9,-443.75 272.69,-444.39 281.23,-445.16 289.46,-446.04 297.38,-447.05 304.95,-448.19 312.15,-449.44 318.94,-450.82 325.32,-452.33 331.26,-453.95 336.73,-455.69 341.73,-457.54 346.23,-459.51 350.23,-461.58 353.7,-463.75 356.65,-466.01 359.06,-468.36 360.94,-470.79 362.26,-473.3 363.04,-475.86 363.28,-478.49 362.97,-481.16 362.13,-483.86 360.76,-486.6 358.86,-489.34 356.46,-492.09 353.55,-494.84 350.16,-497.57 346.3,-500.27 341.98,-502.93 337.23,-505.54"/>
<text text-anchor="middle" x="181.76" y="-481.46" font-family="sans-serif" font-size="16.00">CatalogProductosContext</text>
</g>
<!-- GestionOrdenesContext -->
<g id="node2" class="node">
<title>GestionOrdenesContext</title>
<polygon fill="none" stroke="black" stroke-width="2" points="14.28,-342.89 13.28,-340.04 12.75,-337.19 12.7,-334.37 13.12,-331.57 14.02,-328.82 15.39,-326.12 17.23,-323.48 19.55,-320.92 22.33,-318.44 25.57,-316.05 29.27,-313.76 33.4,-311.58 37.97,-309.51 42.96,-307.56 48.35,-305.74 54.14,-304.05 60.3,-302.49 66.81,-301.07 73.66,-299.78 80.83,-298.64 88.3,-297.64 96.04,-296.78 104.03,-296.06 112.25,-295.48 120.67,-295.03 129.27,-294.73 138.02,-294.55 146.89,-294.51 155.86,-294.59 164.89,-294.79 173.97,-295.11 183.07,-295.54 192.15,-296.08 201.19,-296.72 210.17,-297.46 219.05,-298.29 227.81,-299.2 236.43,-300.2 244.87,-301.27 253.12,-302.42 261.15,-303.63 268.94,-304.9 276.46,-306.23 283.7,-307.62 290.63,-309.06 297.24,-310.54 303.51,-312.06 309.42,-313.63 314.96,-315.23 320.11,-316.87 324.87,-318.54 329.21,-320.24 333.13,-321.97 336.63,-323.73 339.69,-325.52 342.3,-327.33 344.47,-329.16 346.19,-331.02 347.46,-332.9 348.28,-334.8 348.64,-336.71 348.55,-338.65 348.02,-340.6 347.04,-342.57 345.62,-344.54 343.76,-346.53 341.48,-348.52 338.79,-350.52 335.68,-352.53 332.18,-354.52 328.28,-356.52 324.01,-358.5 319.38,-360.47 314.39,-362.42 309.06,-364.34 303.41,-366.23 297.46,-368.09 291.2,-369.9 284.67,-371.66 277.88,-373.37 270.85,-375.01 263.59,-376.59 256.12,-378.08 248.46,-379.49 240.63,-380.81 232.65,-382.02 224.54,-383.14 216.31,-384.13 207.99,-385.01 199.59,-385.76 191.14,-386.38 182.66,-386.86 174.17,-387.19 165.69,-387.38 157.24,-387.42 148.84,-387.3 140.51,-387.03 132.27,-386.6 124.15,-386 116.17,-385.25 108.34,-384.33 100.69,-383.26 93.23,-382.03 85.99,-380.64 78.99,-379.1 72.25,-377.42 65.78,-375.6 59.6,-373.65 53.74,-371.57 48.21,-369.36 43.02,-367.05 38.2,-364.64 33.75,-362.13 29.7,-359.54 26.05,-356.88 22.81,-354.16 20.01,-351.39 17.65,-348.58 15.73,-345.74 14.28,-342.89"/>
<text text-anchor="middle" x="181.76" y="-335.76" font-family="sans-serif" font-size="16.00">GestionOrdenesContext</text>
</g>
<!-- CatalogProductosContext&#45;&gt;GestionOrdenesContext -->
<g id="edge1" class="edge">
<title>CatalogProductosContext&#45;&gt;GestionOrdenesContext</title>
<path fill="none" stroke="black" stroke-width="2" d="M181.76,-442.69C181.76,-425.29 181.76,-404.98 181.76,-387.07"/>
<text text-anchor="middle" x="257.26" y="-408.89" font-family="sans-serif" font-size="12.00"> &#160;&#160;&#160;&#160;&#160;&#160;&#160;&#160;&#160;&#160;&#160;&#160;&#160;&#160;&#160;&#160;&#160;&#160;&#160;&#160;&#160;&#160;&#160;&#160;&#160;&#160;&#160;&#160;&#160;&#160;&#160;&#160;&#160;&#160;&#160;&#160;&#160;&#160;&#160;</text>
<polygon fill="white" stroke="transparent" points="174.76,-378.07 174.76,-395.07 188.76,-395.07 188.76,-378.07 174.76,-378.07"/>
<text text-anchor="start" x="176.76" y="-383.47" font-family="sans-serif" font-size="12.00">D</text>
<polygon fill="white" stroke="transparent" points="157.76,-432.69 157.76,-451.69 173.76,-451.69 173.76,-432.69 157.76,-432.69"/>
<polyline fill="none" stroke="black" points="173.76,-432.69 173.76,-451.69 "/>
<text text-anchor="start" x="160.76" y="-439.09" font-family="sans-serif" font-size="12.00">U</text>
<polygon fill="white" stroke="transparent" points="173.76,-432.69 173.76,-451.69 206.76,-451.69 206.76,-432.69 173.76,-432.69"/>
<polygon fill="none" stroke="black" points="173.76,-432.69 173.76,-451.69 206.76,-451.69 206.76,-432.69 173.76,-432.69"/>
<text text-anchor="start" x="176.76" y="-439.09" font-family="sans-serif" font-size="12.00">OHS</text>
</g>
<!-- GestionPagosContext -->
<g id="node3" class="node">
<title>GestionPagosContext</title>
<polygon fill="none" stroke="black" stroke-width="2" points="270.45,-229.95 262.37,-231.65 254.09,-233.25 245.66,-234.72 237.09,-236.08 228.42,-237.3 219.7,-238.39 210.94,-239.34 202.17,-240.15 193.44,-240.81 184.76,-241.31 176.17,-241.67 167.69,-241.87 159.35,-241.91 151.17,-241.8 143.18,-241.53 135.39,-241.1 127.83,-240.52 120.5,-239.79 113.44,-238.91 106.64,-237.89 100.13,-236.73 93.92,-235.43 88.01,-234 82.41,-232.45 77.13,-230.78 72.17,-229 67.54,-227.12 63.24,-225.15 59.27,-223.09 55.62,-220.94 52.31,-218.73 49.33,-216.46 46.67,-214.14 44.34,-211.77 42.33,-209.36 40.64,-206.93 39.26,-204.48 38.2,-202.03 37.45,-199.57 37,-197.11 36.85,-194.68 37.01,-192.26 37.46,-189.88 38.21,-187.53 39.25,-185.22 40.58,-182.97 42.2,-180.76 44.11,-178.62 46.3,-176.54 48.79,-174.53 51.56,-172.59 54.61,-170.73 57.96,-168.95 61.58,-167.25 65.49,-165.64 69.68,-164.11 74.16,-162.67 78.91,-161.32 83.94,-160.06 89.24,-158.89 94.81,-157.82 100.65,-156.83 106.74,-155.94 113.09,-155.15 119.67,-154.44 126.5,-153.83 133.54,-153.31 140.8,-152.88 148.25,-152.54 155.88,-152.29 163.68,-152.14 171.63,-152.07 179.7,-152.1 187.88,-152.21 196.14,-152.41 204.46,-152.71 212.82,-153.09 221.18,-153.56 229.53,-154.11 237.83,-154.76 246.06,-155.49 254.18,-156.31 262.16,-157.22 269.98,-158.22 277.61,-159.3 285.01,-160.46 292.15,-161.72 299,-163.05 305.54,-164.47 311.73,-165.98 317.55,-167.56 322.97,-169.22 327.97,-170.96 332.52,-172.77 336.61,-174.66 340.21,-176.61 343.3,-178.63 345.87,-180.71 347.9,-182.85 349.4,-185.04 350.33,-187.28 350.71,-189.56 350.53,-191.88 349.78,-194.22 348.47,-196.6 346.61,-198.99 344.2,-201.39 341.24,-203.79 337.76,-206.19 333.77,-208.58 329.29,-210.95 324.32,-213.29 318.91,-215.59 313.06,-217.84 306.81,-220.04 300.18,-222.18 293.2,-224.25 285.89,-226.24 278.3,-228.14 270.45,-229.95"/>
<text text-anchor="middle" x="181.76" y="-190.14" font-family="sans-serif" font-size="16.00">GestionPagosContext</text>
</g>
<!-- GestionOrdenesContext&#45;&gt;GestionPagosContext -->
<g id="edge2" class="edge">
<title>GestionOrdenesContext&#45;&gt;GestionPagosContext</title>
<path fill="none" stroke="black" stroke-width="2" d="M181.76,-295.47C181.76,-278.45 181.76,-258.85 181.76,-241.5"/>
<text text-anchor="middle" x="216.26" y="-264.03" font-family="sans-serif" font-size="12.00">Partnership</text>
</g>
<!-- GestionClientesContext -->
<g id="node4" class="node">
<title>GestionClientesContext</title>
<polygon fill="none" stroke="black" stroke-width="2" points="425.06,-204.88 422.22,-202.1 419.84,-199.3 417.93,-196.51 416.51,-193.72 415.57,-190.95 415.13,-188.22 415.2,-185.52 415.77,-182.88 416.85,-180.3 418.43,-177.79 420.52,-175.35 423.11,-173 426.19,-170.75 429.77,-168.59 433.81,-166.54 438.33,-164.6 443.29,-162.77 448.69,-161.07 454.52,-159.48 460.74,-158.03 467.34,-156.69 474.31,-155.49 481.6,-154.41 489.22,-153.46 497.12,-152.64 505.28,-151.95 513.67,-151.37 522.27,-150.93 531.04,-150.6 539.96,-150.38 549,-150.29 558.13,-150.3 567.32,-150.42 576.53,-150.64 585.75,-150.96 594.93,-151.38 604.05,-151.88 613.08,-152.48 622,-153.15 630.77,-153.91 639.38,-154.75 647.79,-155.65 655.98,-156.63 663.93,-157.67 671.61,-158.77 679.01,-159.94 686.11,-161.16 692.89,-162.44 699.33,-163.78 705.41,-165.16 711.13,-166.6 716.48,-168.09 721.43,-169.63 725.98,-171.21 730.13,-172.84 733.86,-174.51 737.18,-176.23 740.07,-177.99 742.54,-179.79 744.57,-181.63 746.19,-183.51 747.37,-185.43 748.13,-187.39 748.47,-189.38 748.39,-191.4 747.89,-193.45 746.98,-195.53 745.67,-197.64 743.97,-199.76 741.87,-201.9 739.39,-204.05 736.54,-206.21 733.32,-208.37 729.75,-210.52 725.84,-212.67 721.58,-214.8 717.01,-216.91 712.12,-218.99 706.92,-221.03 701.44,-223.03 695.68,-224.98 689.65,-226.87 683.37,-228.69 676.85,-230.43 670.1,-232.09 663.13,-233.66 655.97,-235.13 648.62,-236.5 641.11,-237.74 633.44,-238.87 625.63,-239.87 617.69,-240.73 609.66,-241.45 601.53,-242.02 593.34,-242.45 585.09,-242.71 576.81,-242.82 568.52,-242.77 560.23,-242.55 551.97,-242.16 543.75,-241.61 535.6,-240.9 527.54,-240.02 519.59,-238.98 511.78,-237.78 504.11,-236.42 496.63,-234.91 489.34,-233.26 482.27,-231.47 475.45,-229.54 468.88,-227.49 462.61,-225.32 456.64,-223.04 450.99,-220.66 445.7,-218.19 440.77,-215.64 436.22,-213.03 432.08,-210.35 428.36,-207.63 425.06,-204.88"/>
<text text-anchor="middle" x="585.76" y="-190.14" font-family="sans-serif" font-size="16.00">GestionClientesContext</text>
</g>
<!-- GestionOrdenesContext&#45;&gt;GestionClientesContext -->
<g id="edge3" class="edge">
<title>GestionOrdenesContext&#45;&gt;GestionClientesContext</title>
<path fill="none" stroke="black" stroke-width="2" d="M274.19,-305.7C336.27,-283.63 418.13,-254.53 482.37,-231.69"/>
<text text-anchor="middle" x="431.26" y="-264.03" font-family="sans-serif" font-size="12.00">Partnership</text>
</g>
<!-- GestionEnviosContext -->
<g id="node5" class="node">
<title>GestionEnviosContext</title>
<polygon fill="none" stroke="black" stroke-width="2" points="741.99,-43.25 743.28,-46.1 744.13,-48.95 744.53,-51.79 744.49,-54.6 743.99,-57.37 743.05,-60.09 741.65,-62.75 739.81,-65.34 737.51,-67.86 734.78,-70.28 731.61,-72.62 728.01,-74.84 724,-76.96 719.58,-78.96 714.76,-80.84 709.57,-82.59 704,-84.21 698.08,-85.7 691.84,-87.05 685.27,-88.26 678.41,-89.34 671.28,-90.27 663.9,-91.07 656.28,-91.73 648.46,-92.25 640.46,-92.63 632.3,-92.89 624.01,-93.01 615.61,-93.01 607.13,-92.89 598.6,-92.66 590.04,-92.31 581.48,-91.85 572.94,-91.29 564.45,-90.63 556.04,-89.88 547.73,-89.04 539.55,-88.12 531.52,-87.12 523.66,-86.05 516,-84.91 508.56,-83.7 501.35,-82.43 494.41,-81.11 487.75,-79.73 481.38,-78.31 475.33,-76.83 469.6,-75.32 464.22,-73.76 459.2,-72.16 454.54,-70.53 450.27,-68.86 446.38,-67.16 442.89,-65.43 439.81,-63.66 437.13,-61.87 434.87,-60.05 433.03,-58.2 431.61,-56.33 430.61,-54.43 430.03,-52.51 429.87,-50.57 430.13,-48.6 430.8,-46.62 431.88,-44.63 433.37,-42.61 435.25,-40.59 437.52,-38.56 440.18,-36.52 443.2,-34.49 446.6,-32.45 450.34,-30.42 454.43,-28.4 458.85,-26.4 463.59,-24.43 468.64,-22.47 473.98,-20.56 479.6,-18.68 485.49,-16.85 491.63,-15.08 498,-13.37 504.59,-11.72 511.39,-10.15 518.38,-8.67 525.54,-7.28 532.85,-5.98 540.3,-4.79 547.87,-3.72 555.55,-2.76 563.3,-1.93 571.13,-1.23 579,-0.67 586.9,-0.26 594.81,0.01 602.71,0.13 610.58,0.08 618.4,-0.11 626.16,-0.47 633.83,-1 641.39,-1.68 648.83,-2.53 656.12,-3.54 663.25,-4.7 670.19,-6.03 676.93,-7.5 683.45,-9.13 689.73,-10.9 695.75,-12.8 701.49,-14.84 706.94,-17 712.08,-19.27 716.9,-21.65 721.37,-24.12 725.49,-26.68 729.23,-29.32 732.59,-32.02 735.56,-34.77 738.12,-37.57 740.27,-40.4 741.99,-43.25"/>
<text text-anchor="middle" x="585.76" y="-44.33" font-family="sans-serif" font-size="16.00">GestionEnviosContext</text>
</g>
<!-- GestionClientesContext&#45;&gt;GestionEnviosContext -->
<g id="edge4" class="edge">
<title>GestionClientesContext&#45;&gt;GestionEnviosContext</title>
<path fill="none" stroke="black" stroke-width="2" d="M585.76,-150.96C585.76,-132.47 585.76,-110.77 585.76,-92.16"/>
<text text-anchor="middle" x="620.26" y="-117.65" font-family="sans-serif" font-size="12.00">Partnership</text>
</g>
<!-- GestionAutorizacionAuteticacionContext -->
<g id="node6" class="node">
<title>GestionAutorizacionAuteticacionContext</title>
<polygon fill="none" stroke="black" stroke-width="2" points="369.65,-341.38 368.69,-338.5 368.46,-335.63 368.97,-332.79 370.21,-329.98 372.18,-327.22 374.89,-324.52 378.32,-321.89 382.47,-319.33 387.33,-316.87 392.89,-314.49 399.13,-312.23 406.04,-310.07 413.6,-308.03 421.8,-306.12 430.59,-304.34 439.98,-302.69 449.91,-301.17 460.38,-299.8 471.34,-298.58 482.77,-297.49 494.64,-296.55 506.9,-295.76 519.52,-295.11 532.47,-294.6 545.7,-294.23 559.19,-294 572.88,-293.91 586.73,-293.95 600.71,-294.11 614.78,-294.4 628.88,-294.8 642.99,-295.32 657.05,-295.94 671.03,-296.67 684.89,-297.49 698.58,-298.41 712.06,-299.41 725.3,-300.49 738.26,-301.65 750.89,-302.87 763.17,-304.16 775.06,-305.52 786.52,-306.92 797.53,-308.38 808.05,-309.89 818.06,-311.44 827.53,-313.03 836.43,-314.66 844.74,-316.32 852.44,-318.01 859.51,-319.74 865.94,-321.49 871.7,-323.27 876.79,-325.07 881.19,-326.89 884.89,-328.73 887.9,-330.6 890.19,-332.48 891.78,-334.38 892.66,-336.3 892.82,-338.23 892.28,-340.17 891.04,-342.13 889.1,-344.1 886.47,-346.07 883.16,-348.05 879.19,-350.04 874.56,-352.02 869.3,-354.01 863.41,-355.98 856.92,-357.95 849.84,-359.91 842.19,-361.84 834,-363.76 825.29,-365.64 816.07,-367.49 806.39,-369.3 796.25,-371.07 785.69,-372.78 774.74,-374.43 763.41,-376.02 751.76,-377.54 739.79,-378.97 727.54,-380.32 715.04,-381.57 702.33,-382.72 689.43,-383.76 676.38,-384.69 663.21,-385.5 649.95,-386.17 636.64,-386.72 623.3,-387.12 609.98,-387.38 596.7,-387.5 583.5,-387.46 570.41,-387.26 557.47,-386.91 544.71,-386.4 532.15,-385.72 519.85,-384.89 507.82,-383.9 496.1,-382.75 484.72,-381.44 473.71,-379.98 463.1,-378.38 452.93,-376.62 443.21,-374.73 433.98,-372.71 425.27,-370.56 417.09,-368.3 409.48,-365.93 402.45,-363.46 396.03,-360.9 390.25,-358.26 385.1,-355.55 380.63,-352.78 376.83,-349.97 373.73,-347.12 371.33,-344.26 369.65,-341.38"/>
<text text-anchor="middle" x="631.76" y="-335.76" font-family="sans-serif" font-size="16.00">GestionAutorizacionAuteticacionContext</text>
</g>
<!-- GestionAutorizacionAuteticacionContext&#45;&gt;GestionClientesContext -->
<g id="edge5" class="edge">
<title>GestionAutorizacionAuteticacionContext&#45;&gt;GestionClientesContext</title>
<path fill="none" stroke="black" stroke-width="2" d="M617.58,-294.3C612.3,-277.81 606.29,-259.05 600.93,-242.3"/>
<text text-anchor="middle" x="686.26" y="-264.03" font-family="sans-serif" font-size="12.00"> &#160;&#160;&#160;&#160;&#160;&#160;&#160;&#160;&#160;&#160;&#160;&#160;&#160;&#160;&#160;&#160;&#160;&#160;&#160;&#160;&#160;&#160;&#160;&#160;&#160;&#160;&#160;&#160;&#160;&#160;&#160;&#160;&#160;&#160;&#160;&#160;&#160;&#160;&#160;</text>
<polygon fill="white" stroke="transparent" points="581.93,-232.3 581.93,-251.3 597.93,-251.3 597.93,-232.3 581.93,-232.3"/>
<polyline fill="none" stroke="black" points="597.93,-232.3 597.93,-251.3 "/>
<text text-anchor="start" x="584.93" y="-238.7" font-family="sans-serif" font-size="12.00">D</text>
<polygon fill="white" stroke="transparent" points="597.93,-232.3 597.93,-251.3 619.93,-251.3 619.93,-232.3 597.93,-232.3"/>
<polygon fill="none" stroke="black" points="597.93,-232.3 597.93,-251.3 619.93,-251.3 619.93,-232.3 597.93,-232.3"/>
<text text-anchor="start" x="600.93" y="-238.7" font-family="sans-serif" font-size="12.00">CF</text>
<polygon fill="white" stroke="transparent" points="599.58,-284.3 599.58,-303.3 615.58,-303.3 615.58,-284.3 599.58,-284.3"/>
<polyline fill="none" stroke="black" points="615.58,-284.3 615.58,-303.3 "/>
<text text-anchor="start" x="602.58" y="-290.7" font-family="sans-serif" font-size="12.00">U</text>
<polygon fill="white" stroke="transparent" points="615.58,-284.3 615.58,-303.3 636.58,-303.3 636.58,-284.3 615.58,-284.3"/>
<polygon fill="none" stroke="black" points="615.58,-284.3 615.58,-303.3 636.58,-303.3 636.58,-284.3 615.58,-284.3"/>
<text text-anchor="start" x="618.58" y="-290.7" font-family="sans-serif" font-size="12.00">PL</text>
</g>
</g>
</svg>
